<?xml version="1.0" encoding="utf-8"?>
<svg xmlns="http://www.w3.org/2000/svg" viewBox="0 0 32 32">
  <path d="M18.6 24.4c6.2 0 10.4-5.7 10.4-13.3C29 5.4 24.2 0 16.8 0 7.6 0 3 6.6 3 12.1c0 3.3 1.3 6.3 4 7.4.4.2.8 0 1-.5l.3-1.5c.1-.5 0-.7-.3-1.1-.7-1-1.2-2.1-1.2-3.8 0-4.9 3.6-9.3 9.5-9.3 5.1 0 8 3.2 8 7.4 0 5.6-2.5 10.4-6.1 10.4-2 0-3.6-1.7-3-3.8.5-2.4 1.6-5 1.6-6.9 0-1.6-.8-2.9-2.6-2.9-2 0-3.7 2.2-3.7 5 0 1.9.6 3.1.6 3.1s-2 9-2.5 10.6a17 17 0 00-.3 4.3c.1 1.2 1.3 2.2 2.3.9.8-1.2 1.5-2.6 2-4l1.3-5.4c.6 1.3 2.6 2.4 4.7 2.4z"/>
</svg>