<?xml version="1.0" encoding="utf-8"?>
<svg xmlns="http://www.w3.org/2000/svg" width="50" height="51" viewBox="0 0 50 51" fill="none">
<path d="M37.0866 12.5495L37.2017 12.561C37.5034 12.621 37.7564 12.9085 37.7564 13.2192V16.1493L37.9761 16.3691H43.2085L43.5841 16.3786C45.3252 16.4674 46.8939 17.1738 48.0177 18.3913C49.331 19.8056 50 21.787 50 24.2594V34.0438L49.9885 34.1589C49.9285 34.4606 49.641 34.7136 49.3303 34.7136H46.4525L46.2352 34.9004L46.1916 35.1327C45.8476 36.6622 44.4581 37.8006 42.8422 37.8006C41.1455 37.8006 39.6984 36.5456 39.4492 34.9004L39.2319 34.7136H24.5814L24.3641 34.9004L24.3205 35.1327C23.9765 36.6622 22.587 37.8006 20.9711 37.8006C19.266 37.8006 17.8265 36.5374 17.5782 34.849L17.5341 34.5487L17.2625 34.6845L17.201 34.7049L17.1162 34.7129L13.5412 34.7136L13.4262 34.7021C13.1245 34.6421 12.8715 34.3545 12.8715 34.0438V13.2192L12.883 13.1042C12.943 12.8025 13.2305 12.5495 13.5412 12.5495H37.0866ZM42.8422 32.2021C41.6744 32.2021 40.7388 33.1376 40.7388 34.3055C40.7388 35.4733 41.6744 36.4089 42.8422 36.4089C44.01 36.4089 44.9456 35.4733 44.9456 34.3055C44.9456 33.1376 44.01 32.2021 42.8422 32.2021ZM21.0234 32.2021C19.8556 32.2021 18.9201 33.1376 18.9201 34.3055C18.9201 35.4733 19.8556 36.4089 21.0234 36.4089C22.1372 36.4089 23.0685 35.4775 23.1266 34.3164C23.1268 33.1376 22.1913 32.2021 21.0234 32.2021ZM36.1448 13.889H14.4307L14.211 14.1087V33.102L14.4307 33.3218H17.0469L17.1539 33.3321C17.2273 33.3455 17.3025 33.3709 17.3672 33.4032L17.5963 33.5178L17.6747 33.2739L17.7636 33.0301C18.2859 31.7534 19.5648 30.8626 20.9711 30.8626C22.4811 30.8626 23.8208 31.8318 24.2676 33.2216L24.3459 33.4655L24.575 33.3509L24.6186 33.3346C24.6446 33.3277 24.67 33.3243 24.7123 33.3228L36.1448 33.3218L36.3646 33.102V14.1087L36.1448 13.889ZM43.2085 17.7086H38.0285L37.8087 17.9283V33.102L38.0285 33.3218H39.3889L39.5973 33.1715L39.686 32.9359C40.2047 31.703 41.441 30.8626 42.8422 30.8626C44.2798 30.8626 45.5834 31.812 46.0894 33.1784L46.2955 33.3218H48.4408L48.6605 33.102V24.2071L48.6548 23.8482C48.5331 20.0647 46.4754 17.7086 43.2085 17.7086ZM9.19841 28.0372L9.31344 28.0486C9.61515 28.1087 9.86815 28.3962 9.86815 28.7069C9.86815 29.0564 9.54795 29.3766 9.19841 29.3766L3.11604 29.3769C2.80931 29.3451 2.56383 29.0603 2.56383 28.7069C2.56383 28.3573 2.88403 28.0372 3.23357 28.0372H9.19841ZM9.25073 22.9618L9.36576 22.9733C9.66747 23.0333 9.92047 23.3208 9.92047 23.6315C9.92047 23.9811 9.60027 24.3013 9.25073 24.3013H2.03014L1.91511 24.2898C1.6134 24.2298 1.3604 23.9422 1.3604 23.6315C1.3604 23.282 1.6806 22.9618 2.03014 22.9618H9.25073ZM9.25073 17.8341L9.36576 17.8456C9.66747 17.9057 9.92047 18.1932 9.92047 18.5039C9.92047 18.8534 9.60027 19.1736 9.25073 19.1736H0.669736L0.554709 19.1621C0.252995 19.1021 0 18.8146 0 18.5039C0 18.1543 0.320197 17.8341 0.669736 17.8341H9.25073Z" fill="#3A3A3A"/>
</svg>