<?xml version="1.0" encoding="utf-8"?>
<svg xmlns="http://www.w3.org/2000/svg" width="51" height="51" viewBox="0 0 51 51" fill="none">
<path d="M21.966 6.23199C22.0462 6.2382 22.1283 6.25987 22.204 6.29686L38.9552 14.0742L39.0667 14.1372C39.2397 14.2582 39.3453 14.4552 39.347 14.6708L39.3469 24.838L39.3382 24.9555C39.3067 25.1474 39.1923 25.3164 39.0225 25.4155C38.8187 25.5344 38.5667 25.5344 38.3629 25.4155C38.1594 25.2968 38.0351 25.0775 38.0384 24.8451L38.0384 15.7817L22.7284 22.2222L22.5916 22.4281V38.1805L26.6199 36.2788L26.7291 35.9871L26.5547 35.5578C26.2326 34.698 26.0704 33.8306 26.0704 32.9527C26.1222 30.1322 28.6034 27.7781 31.7363 27.7781C33.428 27.7781 35.0504 28.4797 36.1349 29.6544H36.4632L36.6872 29.4259C37.7644 28.3893 39.2829 27.7781 40.8619 27.7781C43.9956 27.7781 46.476 30.1329 46.5278 32.9619C46.5278 35.3004 45.4135 37.51 43.1824 39.6923C43.1095 39.7636 43.0364 39.8342 42.963 39.9042L42.5167 40.3186L42.0529 40.7261L41.5627 41.1334L41.0373 41.5472L40.4676 41.9743L39.8448 42.4213L39.1601 42.8951L37.9974 43.6706L36.6451 44.544C36.4339 44.6765 36.1639 44.6762 35.9496 44.5419L34.5986 43.6692L33.8048 43.1431L32.7524 42.4207L32.13 41.9739L31.5605 41.5469L31.0352 41.1332L30.5451 40.726C30.4659 40.6583 30.3877 40.5906 30.3105 40.5227L29.8566 40.1127L29.4158 39.6923C28.6703 38.9632 28.0548 38.235 27.5575 37.491L27.2765 37.4131L22.2217 39.7971L22.1144 39.8359C21.9681 39.8747 21.8108 39.8617 21.6709 39.7967L4.91961 32.0192L4.80805 31.9562C4.63509 31.8352 4.52946 31.6382 4.52783 31.4227V14.6669L4.54095 14.542C4.58248 14.3386 4.71975 14.1631 4.91214 14.0776L21.7462 6.26288L21.8481 6.23431L21.966 6.23199ZM40.8619 29.0866C39.2437 29.0866 37.4896 30.0367 36.8694 31.2123C36.7563 31.4165 36.5371 31.5458 36.2991 31.5458C36.0605 31.5458 35.8416 31.416 35.724 31.2034C35.1082 30.0359 33.3534 29.0866 31.7363 29.0866C29.325 29.0866 27.4298 30.8458 27.3789 32.9524L27.39 33.3221C27.5035 35.1654 28.4782 36.9358 30.3354 38.7523C30.7391 39.1471 31.1662 39.5318 31.64 39.9245L32.2324 40.4006C32.5414 40.6417 32.8704 40.8882 33.2246 41.1441L33.968 41.6693L34.7874 42.2263L35.6916 42.822L36.1783 43.1364H36.4198L36.9066 42.822C37.0754 42.7122 37.2398 42.6047 37.3999 42.4991L38.312 41.8879C40.0422 40.7077 41.2294 39.763 42.2628 38.7523C44.2352 36.823 45.2131 34.9451 45.2193 32.9826L45.206 32.7313C45.0262 30.7182 43.1847 29.0866 40.8619 29.0866ZM5.83635 15.7817V30.8723L5.96553 31.0748L21.2831 38.1997V22.4281L21.1464 22.2222L5.83635 15.7817ZM29.6413 11.2581L14.7271 18.1076L21.8508 21.0985H22.0239L37.2271 14.7039L29.8288 11.2586L29.6413 11.2581ZM22.0315 7.6496H21.8433L6.64789 14.7039L13.0008 17.375L13.1805 17.3721L28.1622 10.4986L22.0315 7.6496Z" fill="#3A3A3A"/>
</svg>