<?xml version="1.0" encoding="utf-8"?>
<svg xmlns="http://www.w3.org/2000/svg" xmlns:xlink="http://www.w3.org/1999/xlink" width="32px" height="26px" viewBox="0 0 32 26" version="1.1">
    
    <title>mastercard</title>
    <desc>Created with Sketch.</desc>
    <g id="Page-1" stroke="none" stroke-width="1" fill="none" fill-rule="evenodd">
        <g id="Artboard-Copy-37" transform="translate(0.000000, -3.000000)" fill-rule="nonzero">
            <g id="mastercard" transform="translate(0.000000, 3.000000)">
                <path d="M5.82148239,25.2053375 L5.82148239,23.5298221 C5.84077102,23.2447597 5.73935773,22.9649805 5.54311495,22.7618613 C5.34687217,22.5587421 5.0747774,22.4519255 4.79624708,22.4686623 C4.42918943,22.4440176 4.07812688,22.6259272 3.88007936,22.9433917 C3.69951686,22.6353926 3.36890094,22.4532351 3.01844543,22.4686623 C2.71330633,22.4528641 2.42281687,22.6037408 2.25497233,22.8652009 L2.25497233,22.5356829 L1.68782089,22.5356829 L1.68782089,25.2053375 L2.26042571,25.2053375 L2.26042571,23.736469 C2.23576509,23.551629 2.29294903,23.3651628 2.41637252,23.2279555 C2.53979602,23.0907482 2.71657614,23.0171215 2.89847109,23.0271674 C3.27475426,23.0271674 3.46562254,23.2784948 3.46562254,23.7308839 L3.46562254,25.2165076 L4.03822736,25.2165076 L4.03822736,23.736469 C4.01457866,23.5518392 4.07211226,23.3659772 4.19530692,23.2290243 C4.31850158,23.0920714 4.49466514,23.0181372 4.67627274,23.0271674 C5.06346267,23.0271674 5.24887756,23.2784948 5.24887756,23.7308839 L5.24887756,25.2165076 L5.82148239,25.2053375 Z M14.2933071,22.5356829 L13.3607792,22.5356829 L13.3607792,21.7258504 L12.7881744,21.7258504 L12.7881744,22.5356829 L12.2701034,22.5356829 L12.2701034,23.0662628 L12.7990812,23.0662628 L12.7990812,24.2949741 C12.7990812,24.9149148 13.0335765,25.2835282 13.7043421,25.2835282 C13.9549409,25.2843904 14.2006836,25.2127595 14.4132814,25.0768813 L14.2496801,24.5798118 C14.0975862,24.6727218 13.924967,24.724605 13.7479692,24.7306081 C13.4753002,24.7306081 13.371686,24.5518865 13.371686,24.283804 L13.371686,23.0662628 L14.2987605,23.0662628 L14.2933071,22.5356829 Z M19.1304545,22.4686623 C18.848765,22.4601779 18.585112,22.6101884 18.4433287,22.8596159 L18.4433287,22.5356829 L17.8816307,22.5356829 L17.8816307,25.2053375 L18.4487821,25.2053375 L18.4487821,23.7085437 C18.4487821,23.2673246 18.634197,23.0215824 18.99412,23.0215824 C19.1154262,23.019883 19.2358724,23.0426561 19.3485897,23.088603 L19.5230978,22.5300978 C19.3935724,22.4826428 19.2571106,22.4580909 19.1195478,22.4574922 L19.1304545,22.4686623 Z M11.8174729,22.7479149 C11.4964393,22.5524316 11.1273341,22.4555041 10.7540639,22.4686623 C10.0942051,22.4686623 9.66338809,22.7925953 9.66338809,23.3231752 C9.66338809,23.7588092 9.97968409,24.0268917 10.5631957,24.1106674 L10.8358646,24.1497628 C11.1467073,24.1944432 11.2939485,24.278219 11.2939485,24.4290154 C11.2939485,24.6356623 11.0867201,24.7529484 10.6995302,24.7529484 C10.3880883,24.762181 10.082672,24.6638192 9.83244285,24.4736958 L9.55977389,24.926085 C9.89014338,25.16233 10.2858427,25.2837103 10.6886234,25.2723581 C11.4411897,25.2723581 11.8774601,24.9093298 11.8774601,24.4010901 C11.8774601,23.8928504 11.5338972,23.6862035 10.9667457,23.6024277 L10.6940768,23.5633324 C10.4486747,23.5298221 10.2523531,23.4795566 10.2523531,23.300835 C10.2523531,23.1221133 10.437768,22.9880721 10.7486106,22.9880721 C11.0359152,22.9914901 11.3175605,23.070332 11.5666175,23.2170592 L11.8174729,22.7479149 Z M27.0078609,22.4686623 C26.7261713,22.4601779 26.4625183,22.6101884 26.3207351,22.8596159 L26.3207351,22.5356829 L25.759037,22.5356829 L25.759037,25.2053375 L26.3261885,25.2053375 L26.3261885,23.7085437 C26.3261885,23.2673246 26.5116034,23.0215824 26.8715264,23.0215824 C26.9928325,23.019883 27.1132788,23.0426561 27.2259961,23.088603 L27.4005042,22.5300978 C27.2709788,22.4826428 27.134517,22.4580909 26.9969541,22.4574922 L27.0078609,22.4686623 Z M19.7003327,23.8649252 C19.6866932,24.2442716 19.8297699,24.6119433 20.094444,24.8776929 C20.359118,25.1434425 20.720884,25.2826652 21.0909444,25.261188 C21.4314748,25.2789317 21.7661365,25.1653486 22.0289256,24.9428401 L21.7562567,24.4736958 C21.5601998,24.6268131 21.3211268,24.7110399 21.0745842,24.713853 C20.6398683,24.6778303 20.3050002,24.3060072 20.3050002,23.8593401 C20.3050002,23.412673 20.6398683,23.0408499 21.0745842,23.0048272 C21.3211268,23.0076403 21.5601998,23.0918672 21.7562567,23.2449844 L22.0289256,22.7758401 C21.7661365,22.5533317 21.4314748,22.4397485 21.0909444,22.4574922 C20.720884,22.436015 20.359118,22.5752378 20.094444,22.8409873 C19.8297699,23.1067369 19.6866932,23.4744086 19.7003327,23.8537551 L19.7003327,23.8649252 Z M25.0119241,23.8649252 L25.0119241,22.5356829 L24.4447726,22.5356829 L24.4447726,22.8596159 C24.249379,22.6021311 23.944964,22.4566407 23.6267657,22.4686623 C22.8738112,22.4686623 22.2634209,23.0937905 22.2634209,23.8649252 C22.2634209,24.6360599 22.8738112,25.261188 23.6267657,25.261188 C23.944964,25.2732097 24.249379,25.1277193 24.4447726,24.8702344 L24.4447726,25.1941674 L25.0119241,25.1941674 L25.0119241,23.8649252 Z M22.9014663,23.8649252 C22.9266868,23.4266853 23.2893221,23.089471 23.717671,23.1059369 C24.1460199,23.1224028 24.4829524,23.4865087 24.4760249,23.9254517 C24.4690973,24.3643947 24.1208511,24.7171585 23.6922063,24.719438 C23.4739455,24.7222664 23.2644499,24.6316069 23.1143014,24.4693491 C22.9641529,24.3070912 22.8869984,24.0879822 22.9014663,23.8649252 L22.9014663,23.8649252 Z M16.0574753,22.4686623 C15.3045207,22.4794582 14.7026759,23.1133381 14.7132173,23.8844728 C14.7237587,24.6556075 15.3426944,25.2719839 16.095649,25.261188 C16.4879485,25.2818105 16.8737386,25.1524311 17.1781447,24.8981597 L16.9054758,24.4681107 C16.690166,24.6449554 16.4234248,24.7432222 16.1474561,24.7473633 C15.7576393,24.7816974 15.4119534,24.4920345 15.3676228,24.0939123 L17.3035725,24.0939123 C17.3035725,24.0213066 17.3035725,23.9487009 17.3035725,23.8705102 C17.3035725,23.0327525 16.7964082,22.4742473 16.0656554,22.4742473 L16.0574753,22.4686623 Z M16.0574753,22.9880721 C16.2288758,22.9843296 16.3947041,23.0504933 16.5184601,23.1720001 C16.6422161,23.2935068 16.7137563,23.4603974 16.7173342,23.635938 L15.3539894,23.635938 C15.3745291,23.2630865 15.6821405,22.9753346 16.0465685,22.9880721 L16.0574753,22.9880721 Z M30.266255,23.8705102 L30.266255,21.463353 L29.7209171,21.463353 L29.7209171,22.8596159 C29.5255234,22.6021311 29.2211084,22.4566407 28.9029102,22.4686623 C28.1499557,22.4686623 27.5395654,23.0937905 27.5395654,23.8649252 C27.5395654,24.6360599 28.1499557,25.261188 28.9029102,25.261188 C29.2211084,25.2732097 29.5255234,25.1277193 29.7209171,24.8702344 L29.7209171,25.1941674 L30.266255,25.1941674 L30.266255,23.8705102 Z M31.2124163,24.8171764 C31.2478668,24.8167316 31.2830618,24.8233715 31.3160305,24.8367241 C31.3473446,24.849811 31.3760081,24.8687501 31.4005579,24.8925746 C31.4245171,24.9166522 31.4439294,24.9450536 31.4578184,24.9763504 C31.4857291,25.0422672 31.4857291,25.1170805 31.4578184,25.1829973 C31.4439294,25.2142942 31.4245171,25.2426956 31.4005579,25.2667731 C31.3760081,25.2905976 31.3473446,25.3095367 31.3160305,25.3226236 C31.2833872,25.3373752 31.2480962,25.3449843 31.2124163,25.3449638 C31.106907,25.3441493 31.0113265,25.2810657 30.9670143,25.1829973 C30.9394267,25.1170122 30.9394267,25.0423355 30.9670143,24.9763504 C30.9809033,24.9450536 31.0003155,24.9166522 31.0242747,24.8925746 C31.0488246,24.8687501 31.0774881,24.849811 31.1088021,24.8367241 C31.1443172,24.8222556 31.1824058,24.8155957 31.2205964,24.8171764 L31.2124163,24.8171764 Z M31.2124163,25.2891133 C31.2396313,25.2892826 31.2665753,25.2835734 31.2914903,25.2723581 C31.3149498,25.2616314 31.3362256,25.2464734 31.3542042,25.2276777 C31.4249064,25.1486752 31.4249064,25.0274277 31.3542042,24.9484252 C31.3362684,24.9295776 31.3149824,24.9144123 31.2914903,24.9037447 C31.2665507,24.8926085 31.2396232,24.8869028 31.2124163,24.8869896 C31.185233,24.8871367 31.158351,24.8928328 31.1333423,24.9037447 C31.1088443,24.9140324 31.0865965,24.9292224 31.0679018,24.9484252 C30.9971995,25.0274277 30.9971995,25.1486752 31.0679018,25.2276777 C31.0866425,25.2468232 31.1088783,25.262005 31.1333423,25.2723581 C31.1608518,25.2845078 31.1906578,25.2902314 31.2205964,25.2891133 L31.2124163,25.2891133 Z M31.2287765,24.9568027 C31.2542305,24.9555385 31.2793132,24.9634426 31.2996704,24.9791429 C31.3166038,24.9934954 31.3257407,25.0153295 31.3242106,25.037786 C31.3250021,25.0565392 31.3180784,25.074773 31.3051238,25.0880514 C31.2893194,25.102753 31.2691578,25.1116023 31.2478633,25.1131842 L31.3269373,25.2053375 L31.2642234,25.2053375 L31.1906028,25.1131842 L31.1660626,25.1131842 L31.1660626,25.2053375 L31.1142555,25.2053375 L31.1142555,24.9595953 L31.2287765,24.9568027 Z M31.1687893,25.0042757 L31.1687893,25.0712963 L31.2287765,25.0712963 C31.2394511,25.0745557 31.2508222,25.0745557 31.2614967,25.0712963 C31.2653858,25.0633921 31.2653858,25.0540677 31.2614967,25.0461636 C31.2653858,25.0382594 31.2653858,25.028935 31.2614967,25.0210308 C31.2508222,25.0177714 31.2394511,25.0177714 31.2287765,25.0210308 L31.1687893,25.0042757 Z M28.1694307,23.8705102 C28.1946512,23.4322704 28.5572865,23.0950561 28.9856354,23.111522 C29.4139843,23.1279878 29.7509168,23.4920938 29.7439892,23.9310368 C29.7370617,24.3699798 29.3888155,24.7227435 28.9601707,24.7250231 C28.7419098,24.7278514 28.5324143,24.637192 28.3822658,24.4749341 C28.2321173,24.3126762 28.1549627,24.0935673 28.1694307,23.8705102 L28.1694307,23.8705102 Z M9.01988934,23.8705102 L9.01988934,22.5356829 L8.45273789,22.5356829 L8.45273789,22.8596159 C8.25734422,22.6021311 7.95292921,22.4566407 7.634731,22.4686623 C6.88177644,22.4686623 6.27138618,23.0937905 6.27138618,23.8649252 C6.27138618,24.6360599 6.88177644,25.261188 7.634731,25.261188 C7.95292921,25.2732097 8.25734422,25.1277193 8.45273789,24.8702344 L8.45273789,25.1941674 L9.01988934,25.1941674 L9.01988934,23.8705102 Z M6.90943155,23.8705102 C6.93465207,23.4322704 7.29728731,23.0950561 7.72563625,23.111522 C8.15398518,23.1279878 8.49091761,23.4920938 8.4839901,23.9310368 C8.47706259,24.3699798 8.12881633,24.7227435 7.70017155,24.7250231 C7.48097011,24.7294304 7.27001605,24.6394621 7.11865827,24.4770176 C6.96730049,24.3145732 6.88942155,24.0945521 6.90397817,23.8705102 L6.90943155,23.8705102 Z" id="Shape" fill="#231F20"/>
                <polygon id="Rectangle-path" fill="#FF5F00" points="11.6293313 2.19213272 20.2184037 2.19213272 20.2184037 18.0006211 11.6293313 18.0006211"/>
                <path d="M12.1746693,10.0977732 C12.1714579,7.01244891 13.554059,4.09706653 15.9238675,2.19213272 C11.8992164,-1.0471827 6.11965607,-0.575348397 2.64690613,3.27604317 C-0.825843815,7.12743473 -0.825843815,13.0653191 2.64690613,16.9167106 C6.11965607,20.7681022 11.8992164,21.2399365 15.9238675,18.0006211 C13.5548129,16.096292 12.1722963,13.1821175 12.1746693,10.0977732 L12.1746693,10.0977732 Z" id="_Path_" fill="#EB001B"/>
                <path d="M31.8068347,10.0977732 C31.8067471,13.9468176 29.660772,17.4579357 26.2803134,19.1399419 C22.8998548,20.8219482 18.8783966,20.3795444 15.9238675,18.0006211 C18.2918885,16.0946753 19.6745091,13.1808882 19.6745091,10.0963769 C19.6745091,7.01186561 18.2918885,4.09807852 15.9238675,2.19213272 C18.8783966,-0.186790603 22.8998548,-0.62919443 26.2803134,1.05281185 C29.660772,2.73481812 31.8067471,6.24593615 31.8068347,10.0949806 L31.8068347,10.0977732 Z" id="Shape" fill="#F79E1B"/>
                <path d="M30.8876394,16.5714768 L30.8876394,16.0434077 L31.0280569,16.0434077 L31.0280569,15.934152 L30.6725318,15.934152 L30.6725318,16.0434077 L30.8248997,16.0434077 L30.8248997,16.5714768 L30.8876394,16.5714768 Z M31.5777763,16.5714768 L31.5777763,15.934152 L31.4702225,15.934152 L31.3447431,16.389384 L31.2192636,15.934152 L31.1236602,15.934152 L31.1236602,16.5714768 L31.201338,16.5714768 L31.201338,16.0934832 L31.3178546,16.5077443 L31.39852,16.5077443 L31.5150366,16.0934832 L31.5150366,16.5760291 L31.5777763,16.5714768 Z" id="Shape" fill="#F79E1B"/>
            </g>
        </g>
    </g>
</svg>