<?xml version="1.0" encoding="utf-8"?>
<svg xmlns="http://www.w3.org/2000/svg" xmlns:xlink="http://www.w3.org/1999/xlink" width="32px" height="11px" viewBox="0 0 32 11" version="1.1">
    
    <title>visa</title>
    <desc>Created with Sketch.</desc>
    <defs>
        <path d="M16.2563883,3.2760481 C16.2398353,4.70356286 17.5177029,5.49889252 18.4804548,5.97346132 L18.4804548,5.97346132 C19.4696184,6.45920946 19.8014088,6.77087942 19.7977574,7.20515349 L19.7977574,7.20515349 C19.7903329,7.87026235 19.0083252,8.16338199 18.2773153,8.17492987 L18.2773153,8.17492987 C17.0002998,8.19507724 16.2591877,7.82652782 15.6685133,7.5490101 L15.6685133,7.5490101 L15.2085589,9.720749 C15.8016676,9.99544117 16.8973304,10.2351211 18.0332802,10.2472833 L18.0332802,10.2472833 C20.7019652,10.2472833 22.44709,8.91718841 22.4554882,6.85601434 L22.4554882,6.85601434 C22.4666858,4.24078764 18.8722498,4.09643911 18.8968358,2.9277689 L18.8968358,2.9277689 C18.9049906,2.57248725 19.2401889,2.19460125 19.9741199,2.0975499 L19.9741199,2.0975499 C20.3377991,2.05000702 21.3415684,2.01278353 22.4782485,2.5410377 L22.4782485,2.5410377 L22.9246928,0.439446046 C22.3132054,0.215613697 21.5273028,0.000135134788 20.5481196,0.000135134788 L20.5481196,0.000135134788 C18.0377836,0.000135134788 16.2706288,1.34742897 16.2563883,3.2760481 L16.2563883,3.2760481 Z M27.2161807,0.181461451 C26.7284756,0.181461451 26.3170848,0.467578652 26.1348801,0.908363761 L26.1348801,0.908363761 L22.3233076,10.0922468 L24.9901668,10.0922468 L25.5201064,8.61141524 L28.7783704,8.61141524 L29.0855747,10.0922468 L31.4346406,10.0922468 L29.3840156,0.181461451 L27.2161807,0.181461451 Z M27.5883798,2.85934155 L28.3579728,6.58058507 L26.2511162,6.58058507 L27.5883798,2.85934155 Z M13.0249012,0.181461451 L10.9237652,10.0922468 L13.463921,10.0922468 L15.5644484,0.181461451 L13.0249012,0.181461451 Z M9.26663916,0.181461451 L6.62302712,6.92677583 L5.55353269,1.19165542 C5.42841146,0.551362221 4.93255163,0.181461451 4.38204255,0.181461451 L4.38204255,0.181461451 L0.0596394981,0.181461451 L0,0.46880715 C0.886802823,0.663646945 1.89531891,0.977528203 2.50571091,1.31229393 L2.50571091,1.31229393 C2.87973577,1.51708456 2.98635658,1.69595388 3.10916526,2.18280766 L3.10916526,2.18280766 L5.13447393,10.0922468 L7.81934677,10.0922468 L11.9347156,0.181461451 L9.26663916,0.181461451 Z" id="path-1"/>
    </defs>
    <g id="Page-1" stroke="none" stroke-width="1" fill="none" fill-rule="evenodd">
        <g id="Artboard-Copy-39" transform="translate(0.000000, -11.000000)">
            <g id="visa" transform="translate(0.000000, 11.000000)">
                <mask id="mask-2" fill="white">
                    <use xlink:href="#path-1"/>
                </mask>
                <g id="Clip-2"/>
                <polygon id="Fill-1" fill="#241F5D" mask="url(#mask-2)" points="0.000121713261 10.2474061 0.00292382301 10.2474061 0.00292382301 1.22849807e-05 0.000121713261 1.22849807e-05"/>
                <polygon id="Fill-3" fill="#241F5D" mask="url(#mask-2)" points="0.00109541935 10.2474061 0.463240673 10.2474061 0.463240673 1.22849807e-05 0.00109541935 1.22849807e-05"/>
                <polygon id="Fill-4" fill="#24205E" mask="url(#mask-2)" points="0.46311896 10.2474061 0.925751066 10.2474061 0.925751066 1.22849807e-05 0.46311896 1.22849807e-05"/>
                <polygon id="Fill-5" fill="#23205F" mask="url(#mask-2)" points="0.925751066 10.2474061 1.38789632 10.2474061 1.38789632 1.22849807e-05 0.925751066 1.22849807e-05"/>
                <polygon id="Fill-6" fill="#232160" mask="url(#mask-2)" points="1.38789632 10.2474061 1.85004157 10.2474061 1.85004157 1.22849807e-05 1.38789632 1.22849807e-05"/>
                <polygon id="Fill-7" fill="#222261" mask="url(#mask-2)" points="1.85004157 10.2474061 2.31267368 10.2474061 2.31267368 1.22849807e-05 1.85004157 1.22849807e-05"/>
                <polygon id="Fill-8" fill="#222262" mask="url(#mask-2)" points="2.31267368 10.2474061 2.77481893 10.2474061 2.77481893 1.22849807e-05 2.31267368 1.22849807e-05"/>
                <polygon id="Fill-9" fill="#212363" mask="url(#mask-2)" points="2.77481893 10.2474061 3.23696419 10.2474061 3.23696419 1.22849807e-05 2.77481893 1.22849807e-05"/>
                <polygon id="Fill-10" fill="#212464" mask="url(#mask-2)" points="3.23696419 10.2474061 3.69910944 10.2474061 3.69910944 1.22849807e-05 3.23696419 1.22849807e-05"/>
                <polygon id="Fill-11" fill="#202565" mask="url(#mask-2)" points="3.69898773 10.2474061 4.16161983 10.2474061 4.16161983 1.22849807e-05 3.69898773 1.22849807e-05"/>
                <polygon id="Fill-12" fill="#202566" mask="url(#mask-2)" points="4.16161983 10.2474061 4.62376509 10.2474061 4.62376509 1.22849807e-05 4.16161983 1.22849807e-05"/>
                <polygon id="Fill-13" fill="#1F2667" mask="url(#mask-2)" points="4.62376509 10.2474061 5.08591034 10.2474061 5.08591034 1.22849807e-05 4.62376509 1.22849807e-05"/>
                <polygon id="Fill-14" fill="#1F2768" mask="url(#mask-2)" points="5.08591034 10.2474061 5.54854245 10.2474061 5.54854245 1.22849807e-05 5.08591034 1.22849807e-05"/>
                <polygon id="Fill-15" fill="#1E2769" mask="url(#mask-2)" points="5.54854245 10.2474061 6.0106877 10.2474061 6.0106877 1.22849807e-05 5.54854245 1.22849807e-05"/>
                <polygon id="Fill-16" fill="#1E286A" mask="url(#mask-2)" points="6.0106877 10.2474061 6.47283296 10.2474061 6.47283296 1.22849807e-05 6.0106877 1.22849807e-05"/>
                <polygon id="Fill-17" fill="#1D296B" mask="url(#mask-2)" points="6.47271124 10.2474061 6.93534335 10.2474061 6.93534335 1.22849807e-05 6.47271124 1.22849807e-05"/>
                <polygon id="Fill-18" fill="#1D296C" mask="url(#mask-2)" points="6.93534335 10.2474061 7.3974886 10.2474061 7.3974886 1.22849807e-05 6.93534335 1.22849807e-05"/>
                <polygon id="Fill-19" fill="#1C2A6D" mask="url(#mask-2)" points="7.3974886 10.2474061 7.85963386 10.2474061 7.85963386 1.22849807e-05 7.3974886 1.22849807e-05"/>
                <polygon id="Fill-20" fill="#1C2B6E" mask="url(#mask-2)" points="7.85963386 10.2474061 8.32226596 10.2474061 8.32226596 1.22849807e-05 7.85963386 1.22849807e-05"/>
                <polygon id="Fill-21" fill="#1B2C6F" mask="url(#mask-2)" points="8.32226596 10.2474061 8.78441122 10.2474061 8.78441122 1.22849807e-05 8.32226596 1.22849807e-05"/>
                <polygon id="Fill-22" fill="#1B2C70" mask="url(#mask-2)" points="8.78441122 10.2474061 9.24655647 10.2474061 9.24655647 1.22849807e-05 8.78441122 1.22849807e-05"/>
                <polygon id="Fill-23" fill="#1A2D71" mask="url(#mask-2)" points="9.24655647 10.2474061 9.70870172 10.2474061 9.70870172 1.22849807e-05 9.24655647 1.22849807e-05"/>
                <polygon id="Fill-24" fill="#1A2E72" mask="url(#mask-2)" points="9.70858001 10.2474061 10.1712121 10.2474061 10.1712121 1.22849807e-05 9.70858001 1.22849807e-05"/>
                <polygon id="Fill-25" fill="#192E73" mask="url(#mask-2)" points="10.1712121 10.2474061 10.6333574 10.2474061 10.6333574 1.22849807e-05 10.1712121 1.22849807e-05"/>
                <polygon id="Fill-26" fill="#192F74" mask="url(#mask-2)" points="10.6333574 10.2474061 11.0955026 10.2474061 11.0955026 1.22849807e-05 10.6333574 1.22849807e-05"/>
                <polygon id="Fill-27" fill="#183075" mask="url(#mask-2)" points="11.0955026 10.2474061 11.5581347 10.2474061 11.5581347 1.22849807e-05 11.0955026 1.22849807e-05"/>
                <polygon id="Fill-28" fill="#183176" mask="url(#mask-2)" points="11.5581347 10.2474061 12.02028 10.2474061 12.02028 1.22849807e-05 11.5581347 1.22849807e-05"/>
                <polygon id="Fill-29" fill="#173177" mask="url(#mask-2)" points="12.02028 10.2474061 12.4824252 10.2474061 12.4824252 1.22849807e-05 12.02028 1.22849807e-05"/>
                <polygon id="Fill-30" fill="#173278" mask="url(#mask-2)" points="12.4823035 10.2474061 12.9449356 10.2474061 12.9449356 1.22849807e-05 12.4823035 1.22849807e-05"/>
                <polygon id="Fill-31" fill="#163379" mask="url(#mask-2)" points="12.9449356 10.2474061 13.4070809 10.2474061 13.4070809 1.22849807e-05 12.9449356 1.22849807e-05"/>
                <polygon id="Fill-32" fill="#16337A" mask="url(#mask-2)" points="13.4070809 10.2474061 13.8692261 10.2474061 13.8692261 1.22849807e-05 13.4070809 1.22849807e-05"/>
                <polygon id="Fill-33" fill="#15347B" mask="url(#mask-2)" points="13.8692261 10.2474061 14.3318582 10.2474061 14.3318582 1.22849807e-05 13.8692261 1.22849807e-05"/>
                <polygon id="Fill-34" fill="#15357C" mask="url(#mask-2)" points="14.3318582 10.2474061 14.7940035 10.2474061 14.7940035 1.22849807e-05 14.3318582 1.22849807e-05"/>
                <polygon id="Fill-35" fill="#14357D" mask="url(#mask-2)" points="14.7940035 10.2474061 15.2561488 10.2474061 15.2561488 1.22849807e-05 14.7940035 1.22849807e-05"/>
                <polygon id="Fill-36" fill="#14367E" mask="url(#mask-2)" points="15.2561488 10.2474061 15.718294 10.2474061 15.718294 1.22849807e-05 15.2561488 1.22849807e-05"/>
                <polygon id="Fill-37" fill="#13377F" mask="url(#mask-2)" points="15.7181723 10.2474061 16.1808044 10.2474061 16.1808044 1.22849807e-05 15.7181723 1.22849807e-05"/>
                <polygon id="Fill-38" fill="#133880" mask="url(#mask-2)" points="16.1808044 10.2474061 16.6429497 10.2474061 16.6429497 1.22849807e-05 16.1808044 1.22849807e-05"/>
                <polygon id="Fill-39" fill="#123881" mask="url(#mask-2)" points="16.6429497 10.2474061 17.1050949 10.2474061 17.1050949 1.22849807e-05 16.6429497 1.22849807e-05"/>
                <polygon id="Fill-40" fill="#123983" mask="url(#mask-2)" points="17.1050949 10.2474061 17.567727 10.2474061 17.567727 1.22849807e-05 17.1050949 1.22849807e-05"/>
                <polygon id="Fill-41" fill="#113A84" mask="url(#mask-2)" points="17.567727 10.2474061 18.0298723 10.2474061 18.0298723 1.22849807e-05 17.567727 1.22849807e-05"/>
                <polygon id="Fill-42" fill="#113A85" mask="url(#mask-2)" points="18.0298723 10.2474061 18.4920175 10.2474061 18.4920175 1.22849807e-05 18.0298723 1.22849807e-05"/>
                <polygon id="Fill-43" fill="#103B86" mask="url(#mask-2)" points="18.4920175 10.2474061 18.9541628 10.2474061 18.9541628 1.22849807e-05 18.4920175 1.22849807e-05"/>
                <polygon id="Fill-44" fill="#103C87" mask="url(#mask-2)" points="18.9540411 10.2474061 19.4166732 10.2474061 19.4166732 1.22849807e-05 18.9540411 1.22849807e-05"/>
                <polygon id="Fill-45" fill="#0F3C88" mask="url(#mask-2)" points="19.4166732 10.2474061 19.8788184 10.2474061 19.8788184 1.22849807e-05 19.4166732 1.22849807e-05"/>
                <polygon id="Fill-46" fill="#0F3D89" mask="url(#mask-2)" points="19.8788184 10.2474061 20.3414505 10.2474061 20.3414505 1.22849807e-05 19.8788184 1.22849807e-05"/>
                <polygon id="Fill-47" fill="#0E3E8A" mask="url(#mask-2)" points="20.3414505 10.2474061 20.8035958 10.2474061 20.8035958 1.22849807e-05 20.3414505 1.22849807e-05"/>
                <polygon id="Fill-48" fill="#0E3F8B" mask="url(#mask-2)" points="20.8035958 10.2474061 21.265741 10.2474061 21.265741 1.22849807e-05 20.8035958 1.22849807e-05"/>
                <polygon id="Fill-49" fill="#0D3F8C" mask="url(#mask-2)" points="21.265741 10.2474061 21.7278863 10.2474061 21.7278863 1.22849807e-05 21.265741 1.22849807e-05"/>
                <polygon id="Fill-50" fill="#0D408D" mask="url(#mask-2)" points="21.7277646 10.2474061 22.1903967 10.2474061 22.1903967 1.22849807e-05 21.7277646 1.22849807e-05"/>
                <polygon id="Fill-51" fill="#0C418E" mask="url(#mask-2)" points="22.1903967 10.2474061 22.6525419 10.2474061 22.6525419 1.22849807e-05 22.1903967 1.22849807e-05"/>
                <polygon id="Fill-52" fill="#0C418F" mask="url(#mask-2)" points="22.6525419 10.2474061 23.1146872 10.2474061 23.1146872 1.22849807e-05 22.6525419 1.22849807e-05"/>
                <polygon id="Fill-53" fill="#0B4290" mask="url(#mask-2)" points="23.1146872 10.2474061 23.5773193 10.2474061 23.5773193 1.22849807e-05 23.1146872 1.22849807e-05"/>
                <polygon id="Fill-54" fill="#0B4391" mask="url(#mask-2)" points="23.5773193 10.2474061 24.0394646 10.2474061 24.0394646 1.22849807e-05 23.5773193 1.22849807e-05"/>
                <polygon id="Fill-55" fill="#0A4392" mask="url(#mask-2)" points="24.0394646 10.2474061 24.5016098 10.2474061 24.5016098 1.22849807e-05 24.0394646 1.22849807e-05"/>
                <polygon id="Fill-56" fill="#0A4493" mask="url(#mask-2)" points="24.5016098 10.2474061 24.9637551 10.2474061 24.9637551 1.22849807e-05 24.5016098 1.22849807e-05"/>
                <polygon id="Fill-57" fill="#094594" mask="url(#mask-2)" points="24.9636333 10.2474061 25.4262655 10.2474061 25.4262655 1.22849807e-05 24.9636333 1.22849807e-05"/>
                <polygon id="Fill-58" fill="#094695" mask="url(#mask-2)" points="25.4262655 10.2474061 25.8884107 10.2474061 25.8884107 1.22849807e-05 25.4262655 1.22849807e-05"/>
                <polygon id="Fill-59" fill="#084696" mask="url(#mask-2)" points="25.8884107 10.2474061 26.3510428 10.2474061 26.3510428 1.22849807e-05 25.8884107 1.22849807e-05"/>
                <polygon id="Fill-60" fill="#084797" mask="url(#mask-2)" points="26.3510428 10.2474061 26.8131881 10.2474061 26.8131881 1.22849807e-05 26.3510428 1.22849807e-05"/>
                <polygon id="Fill-61" fill="#074898" mask="url(#mask-2)" points="26.8131881 10.2474061 27.2753333 10.2474061 27.2753333 1.22849807e-05 26.8131881 1.22849807e-05"/>
                <polygon id="Fill-62" fill="#074899" mask="url(#mask-2)" points="27.2753333 10.2474061 27.7374786 10.2474061 27.7374786 1.22849807e-05 27.2753333 1.22849807e-05"/>
                <polygon id="Fill-63" fill="#06499A" mask="url(#mask-2)" points="27.7373569 10.2474061 28.199989 10.2474061 28.199989 1.22849807e-05 27.7373569 1.22849807e-05"/>
                <polygon id="Fill-64" fill="#064A9B" mask="url(#mask-2)" points="28.199989 10.2474061 28.6621342 10.2474061 28.6621342 1.22849807e-05 28.199989 1.22849807e-05"/>
                <polygon id="Fill-65" fill="#054A9C" mask="url(#mask-2)" points="28.6621342 10.2474061 29.1242795 10.2474061 29.1242795 1.22849807e-05 28.6621342 1.22849807e-05"/>
                <polygon id="Fill-66" fill="#054B9D" mask="url(#mask-2)" points="29.1242795 10.2474061 29.5869116 10.2474061 29.5869116 1.22849807e-05 29.1242795 1.22849807e-05"/>
                <polygon id="Fill-67" fill="#044C9E" mask="url(#mask-2)" points="29.5869116 10.2474061 30.0490568 10.2474061 30.0490568 1.22849807e-05 29.5869116 1.22849807e-05"/>
                <polygon id="Fill-68" fill="#044D9F" mask="url(#mask-2)" points="30.0490568 10.2474061 30.5112021 10.2474061 30.5112021 1.22849807e-05 30.0490568 1.22849807e-05"/>
                <polygon id="Fill-69" fill="#034DA0" mask="url(#mask-2)" points="30.5112021 10.2474061 30.9733473 10.2474061 30.9733473 1.22849807e-05 30.5112021 1.22849807e-05"/>
                <polygon id="Fill-70" fill="#034EA1" mask="url(#mask-2)" points="30.9733473 10.2474061 31.4345189 10.2474061 31.4345189 1.22849807e-05 30.9733473 1.22849807e-05"/>
            </g>
        </g>
    </g>
</svg>