<?xml version="1.0" encoding="utf-8"?>
<svg xmlns="http://www.w3.org/2000/svg" xmlns:xlink="http://www.w3.org/1999/xlink" width="32px" height="20px" viewBox="0 0 32 20" version="1.1">
    
    <title>bancontact</title>
    <desc>Created with Sketch.</desc>
    <g id="Page-1" stroke="none" stroke-width="1" fill="none" fill-rule="evenodd">
        <g id="Artboard-Copy-42" transform="translate(0.000000, -6.000000)">
            <g id="bancontact" transform="translate(0.000000, 6.000000)">
                <path d="M28.4916364,3.51617834 L18.5957945,3.51617834 L14.3234783,8.36063694 L14.3234783,8.36076433 L13.3170593,9.50191083 L3.552,9.50191083 L6.00271937,6.64356688 L1.50324111,6.64356688 C0.681233202,6.64356688 0.00860079051,7.33821656 0.00860079051,8.18713376 L0.00860079051,11.4440764 C0.00860079051,12.293121 0.681233202,12.9877707 1.50324111,12.9877707 L18.7292332,12.9877707 C19.5512411,12.9877707 20.6741502,12.4718471 21.2246008,11.8412739 L28.4916364,3.51617834" id="Fill-2" fill="#004C81"/>
                <path d="M30.4799368,0.034522293 C31.3019447,0.034522293 31.9745771,0.729171975 31.9745771,1.57821656 L31.9745771,4.83503185 C31.9745771,5.68394904 31.3019447,6.37872611 30.4799368,6.37872611 L25.9951304,6.37872611 L26.9953518,5.23171975 C26.9953518,5.23171975 26.9953518,5.23171975 26.9954783,5.23171975 L28.4916364,3.51617834 L18.5959209,3.51617834 L13.3171858,9.50624204 L3.4915415,9.50624204 L10.8046166,1.17796178 C11.3569644,0.549044586 12.4813913,0.034522293 13.3033992,0.034522293 L30.4799368,0.034522293" id="Fill-3" fill="#FFDA1A"/>
                <path d="M3.37694862,18.5243312 C3.37694862,18.3117197 3.32711462,18.1276433 3.2276996,17.9722293 C3.1281581,17.8168153 2.99724901,17.6982166 2.83484585,17.6164331 C2.99724901,17.5346497 3.12309881,17.4138854 3.21252174,17.2543949 C3.30181818,17.0949045 3.3464664,16.9150318 3.3464664,16.7146497 L3.3464664,16.6042038 C3.3464664,16.3587261 3.29979447,16.1542675 3.20645059,15.9907006 C3.11298024,15.8271338 2.98194466,15.6961783 2.81347036,15.5980892 C2.64499605,15.4998726 2.44287747,15.4294268 2.20749407,15.3863694 C1.97185771,15.3434395 1.71003953,15.3220382 1.42166008,15.3220382 C1.32426877,15.3220382 1.22270356,15.3240764 1.11721739,15.3281529 C1.01147826,15.3322293 0.909027668,15.3373248 0.809612648,15.3434395 C0.710071146,15.3495541 0.618624506,15.3568153 0.535525692,15.3649682 C0.452173913,15.3732484 0.384126482,15.3814013 0.331383399,15.3894268 C0.213628458,15.4100637 0.130403162,15.4467516 0.0817075099,15.4998726 C0.0330118577,15.553121 0.00860079051,15.6492994 0.00860079051,15.7882803 L0.00860079051,19.5182166 C0.00860079051,19.6571975 0.0338972332,19.7533758 0.084743083,19.8064968 C0.135462451,19.8597452 0.22172332,19.8964331 0.343652174,19.9169427 C0.404490119,19.929172 0.477596838,19.9393631 0.56284585,19.9476433 C0.648094862,19.9557962 0.740426877,19.9629299 0.839968379,19.9690446 C0.939509881,19.9751592 1.04196047,19.9802548 1.14757312,19.9844586 C1.25318577,19.9884076 1.35664822,19.9905732 1.45821344,19.9905732 C1.72218182,19.9905732 1.97084585,19.9700637 2.2044585,19.929172 C2.43781818,19.8884076 2.64082213,19.8156688 2.81347036,19.7113376 C2.98611858,19.6071338 3.12309881,19.4659873 3.22466403,19.2881529 C3.32610277,19.1101911 3.37694862,18.886242 3.37694862,18.6163057 L3.37694862,18.5243312 Z M2.34143874,16.7636943 C2.34143874,16.829172 2.33132016,16.8915924 2.31095652,16.950828 C2.29059289,17.0100637 2.25720158,17.0611465 2.21052964,17.1042038 C2.16373123,17.1471338 2.10086957,17.1819108 2.0216917,17.2084076 C1.94251383,17.2350318 1.84196047,17.2482803 1.7201581,17.2482803 L1.03803953,17.2482803 L1.03803953,16.1870064 C1.05827668,16.1870064 1.08977075,16.1859873 1.13239526,16.183949 C1.17501976,16.1819108 1.21966798,16.1808917 1.26633992,16.1808917 L1.50083794,16.1808917 C1.81350198,16.1808917 2.03181028,16.2207643 2.15563636,16.3005096 C2.27946245,16.3802548 2.34143874,16.503949 2.34143874,16.6715924 L2.34143874,16.7636943 Z M2.3658498,18.5918471 C2.3658498,18.7635669 2.30589723,18.8965605 2.18611858,18.9905732 C2.06633992,19.0847134 1.85005534,19.1317197 1.5373913,19.1317197 L1.43696443,19.1317197 C1.39016601,19.1317197 1.34147036,19.1307006 1.29075099,19.1286624 C1.23990514,19.1266242 1.19120949,19.1254777 1.14453755,19.1254777 L1.03803953,19.1254777 L1.03803953,17.9783439 L1.7201581,17.9783439 C1.96376285,17.9783439 2.13223715,18.0326115 2.22570751,18.1408917 C2.31905138,18.2492994 2.3658498,18.3770701 2.3658498,18.5243312 L2.3658498,18.5918471 Z M6.71481423,17.6225478 C6.71481423,17.397707 6.68129644,17.2063694 6.61426087,17.0489172 C6.54735178,16.8915924 6.45286957,16.7626752 6.33106719,16.6624204 C6.20926482,16.562293 6.06001581,16.4886624 5.88332016,16.4416561 C5.70675099,16.3946497 5.50880632,16.3710828 5.28948617,16.3710828 C5.08635573,16.3710828 4.88841107,16.3854777 4.69565217,16.4140127 C4.50264032,16.4426752 4.34934387,16.4713376 4.23576285,16.4998726 C4.1586087,16.5203822 4.12003162,16.5653503 4.12003162,16.6347771 L4.12003162,17.1317197 C4.12003162,17.1727389 4.1301502,17.2014013 4.15051383,17.2175796 C4.17075099,17.2340127 4.19705929,17.2421656 4.2296917,17.2421656 L4.26004743,17.2421656 C4.30886957,17.2380892 4.36970751,17.2329936 4.44281423,17.226879 C4.51592095,17.2207643 4.59813439,17.2156688 4.68958103,17.211465 C4.78090119,17.2075159 4.87626877,17.2044586 4.97581028,17.202293 C5.0752253,17.2002548 5.17375494,17.1992357 5.27127273,17.1992357 C5.41331225,17.1992357 5.52499605,17.2258599 5.60619763,17.2789809 C5.68739921,17.3322293 5.728,17.4467516 5.728,17.6225478 L5.728,17.8434395 L5.39914625,17.8434395 C4.87525692,17.8434395 4.49454545,17.926242 4.25701186,18.0918471 C4.01947826,18.2574522 3.90071146,18.5202548 3.90071146,18.8801274 L3.90071146,18.935414 C3.90071146,19.1357962 3.93018182,19.3034395 3.98899605,19.4383439 C4.04781028,19.5733758 4.12610277,19.6817834 4.22349407,19.7635669 C4.32101186,19.8453503 4.43155731,19.9036943 4.55550988,19.9383439 C4.67933597,19.973121 4.80834783,19.9905732 4.94229249,19.9905732 C5.12505929,19.9905732 5.28240316,19.9659873 5.41432411,19.9169427 C5.54624506,19.8678981 5.671083,19.8003822 5.78896443,19.7145223 L5.78896443,19.8126115 C5.78896443,19.8453503 5.80110672,19.8740127 5.82551779,19.8984713 C5.84992885,19.9230573 5.87826087,19.9352866 5.9107668,19.9352866 L6.59301186,19.9352866 C6.6253913,19.9352866 6.6538498,19.9230573 6.67826087,19.8984713 C6.70267194,19.8740127 6.71481423,19.8453503 6.71481423,19.8126115 L6.71481423,17.6225478 Z M5.74633992,19.1071338 C5.6732332,19.143949 5.59494071,19.1756688 5.5118419,19.2021656 C5.42849012,19.2289172 5.34020553,19.2420382 5.24686166,19.2420382 C5.11683794,19.2420382 5.0204585,19.2236943 4.95747036,19.186879 C4.89448221,19.1500637 4.86311462,19.066242 4.86311462,18.935414 L4.86311462,18.8801274 C4.86311462,18.8064968 4.87120949,18.7411465 4.88752569,18.6838217 C4.90371542,18.6266242 4.93217391,18.5794904 4.9727747,18.5426752 C5.01324901,18.5059873 5.06814229,18.4783439 5.13720158,18.4598726 C5.20626087,18.4415287 5.2935336,18.4323567 5.39914625,18.4323567 L5.74633992,18.4323567 L5.74633992,19.1071338 Z M10.442498,19.8064968 L10.442498,17.7635669 C10.442498,17.571465 10.4273202,17.3904459 10.3968379,17.2207643 C10.3663557,17.0510828 10.3115889,16.9038217 10.2324111,16.7789809 C10.1532332,16.6542675 10.0435731,16.5550318 9.90343083,16.4815287 C9.76341502,16.4078981 9.58368379,16.3710828 9.36436364,16.3710828 C9.16945455,16.3710828 8.99680632,16.3947771 8.84667194,16.4421656 C8.69641107,16.4895541 8.53805534,16.5729936 8.37160474,16.6924841 L8.37160474,16.5438217 C8.37160474,16.5109554 8.35933597,16.4820382 8.33505138,16.4573248 C8.31064032,16.4326115 8.28218182,16.4201274 8.24967589,16.4201274 L7.56755731,16.4201274 C7.5349249,16.4201274 7.50659289,16.4323567 7.4823083,16.4569427 C7.45789723,16.4815287 7.44575494,16.5101911 7.44575494,16.5428025 L7.44575494,19.8064968 C7.44575494,19.8392357 7.45878261,19.8689172 7.48534387,19.895414 C7.51165217,19.9220382 7.54112253,19.9352866 7.57362846,19.9352866 L8.31064032,19.9352866 C8.34314625,19.9352866 8.37160474,19.9220382 8.39588933,19.8955414 C8.4203004,19.8690446 8.43244269,19.8394904 8.43244269,19.8067516 L8.43244269,17.3950318 C8.53805534,17.3379618 8.63747036,17.2910828 8.73094071,17.2543949 C8.82428458,17.2175796 8.91560474,17.1992357 9.00502767,17.1992357 C9.09837154,17.1992357 9.17451383,17.2084076 9.23345455,17.226879 C9.29226877,17.2452229 9.33792885,17.2768153 9.37043478,17.3217834 C9.40294071,17.3666242 9.42532806,17.4257325 9.43747036,17.4991083 C9.44961265,17.5726115 9.45581028,17.6624204 9.45581028,17.768535 L9.45581028,19.8067516 C9.45581028,19.8394904 9.46795257,19.8690446 9.49236364,19.8955414 C9.51664822,19.9220382 9.54498024,19.9352866 9.57761265,19.9352866 L10.3146245,19.9352866 C10.347004,19.9352866 10.3764743,19.9220382 10.4029091,19.895414 C10.4293439,19.8689172 10.442498,19.8392357 10.442498,19.8064968 L10.442498,19.8064968 Z M13.4393676,19.7574522 L13.4393676,19.211465 C13.4393676,19.1787261 13.4281107,19.153121 13.4058498,19.1347771 C13.3834625,19.1163057 13.3560158,19.1071338 13.3236364,19.1071338 L13.3113676,19.1071338 C13.1976601,19.1193631 13.0891383,19.1296815 12.9855494,19.1378344 C12.8819605,19.1459873 12.74283,19.1500637 12.5682846,19.1500637 C12.4992253,19.1500637 12.4343399,19.1388535 12.3733755,19.1163057 C12.3124111,19.0938854 12.259668,19.0550318 12.2150198,18.9997452 C12.1702451,18.944586 12.13483,18.8709554 12.1083953,18.7789809 C12.0819605,18.686879 12.0688063,18.5733758 12.0688063,18.4384713 L12.0688063,17.9231847 C12.0688063,17.7881529 12.0819605,17.6746497 12.1083953,17.5826752 C12.13483,17.4905732 12.1702451,17.4170701 12.2150198,17.3617834 C12.259668,17.3066242 12.3124111,17.2677707 12.3733755,17.2452229 C12.4343399,17.2228025 12.4992253,17.211465 12.5682846,17.211465 C12.74283,17.211465 12.8819605,17.2156688 12.9855494,17.2238217 C13.0891383,17.2319745 13.1976601,17.2421656 13.3113676,17.2543949 L13.3236364,17.2543949 C13.3560158,17.2543949 13.3834625,17.2452229 13.4058498,17.226879 C13.4281107,17.2084076 13.4393676,17.1829299 13.4393676,17.1501911 L13.4393676,16.6042038 C13.4393676,16.5592357 13.4291225,16.5275159 13.4088854,16.5090446 C13.3885217,16.4907006 13.3560158,16.4752866 13.3113676,16.4630573 C13.2261186,16.4426752 13.1154466,16.422293 12.9794783,16.4016561 C12.8433834,16.3812739 12.6840158,16.3710828 12.501249,16.3710828 C12.07083,16.3710828 11.7266719,16.503949 11.4689012,16.7698089 C11.211004,17.0356688 11.0821186,17.4201274 11.0821186,17.9231847 L11.0821186,18.4384713 C11.0821186,18.9415287 11.211004,19.3259873 11.4689012,19.5917197 C11.7266719,19.857707 12.07083,19.9905732 12.501249,19.9905732 C12.6840158,19.9905732 12.8433834,19.9802548 12.9794783,19.9598726 C13.1154466,19.9393631 13.2261186,19.9189809 13.3113676,19.8984713 C13.3560158,19.886242 13.3885217,19.8709554 13.4088854,19.8524841 C13.4291225,19.8341401 13.4393676,19.8024204 13.4393676,19.7574522 L13.4393676,19.7574522 Z M16.8199842,17.9661146 C16.8199842,17.7206369 16.7863399,17.4998726 16.7191779,17.3035669 C16.6520158,17.1072611 16.5543715,16.9406369 16.4262451,16.8035669 C16.2981186,16.6666242 16.1393834,16.5602548 15.9502925,16.484586 C15.7610751,16.4089172 15.5422609,16.3710828 15.2941028,16.3710828 C15.0459447,16.3710828 14.8272569,16.4089172 14.6380395,16.484586 C14.4488221,16.5602548 14.2890751,16.6666242 14.1589249,16.8035669 C14.0286482,16.9406369 13.9299921,17.1072611 13.8629565,17.3035669 C13.795668,17.4998726 13.7621502,17.7206369 13.7621502,17.9661146 L13.7621502,18.3955414 C13.7621502,18.6408917 13.795668,18.8617834 13.8629565,19.0580892 C13.9299921,19.2543949 14.0286482,19.4210191 14.1589249,19.5580892 C14.2890751,19.6951592 14.4488221,19.8014013 14.6380395,19.8770701 C14.8272569,19.9526115 15.0459447,19.9905732 15.2941028,19.9905732 C15.5422609,19.9905732 15.7610751,19.9526115 15.9502925,19.8770701 C16.1393834,19.8014013 16.2981186,19.6951592 16.4262451,19.5580892 C16.5543715,19.4210191 16.6520158,19.2543949 16.7191779,19.0580892 C16.7863399,18.8617834 16.8199842,18.6408917 16.8199842,18.3955414 L16.8199842,17.9661146 Z M15.83317,18.3955414 C15.83317,18.8985987 15.6534387,19.1500637 15.2941028,19.1500637 C15.1163953,19.1500637 14.9811858,19.0867516 14.8883478,18.9598726 C14.7953834,18.833121 14.7489644,18.6449682 14.7489644,18.3955414 L14.7489644,17.9661146 C14.7489644,17.7166879 14.7953834,17.5295541 14.8883478,17.4047134 C14.9811858,17.28 15.1163953,17.2175796 15.2941028,17.2175796 C15.6534387,17.2175796 15.83317,17.4671338 15.83317,17.9661146 L15.83317,18.3955414 Z M20.4440791,19.8064968 L20.4440791,17.7635669 C20.4440791,17.571465 20.4287747,17.3904459 20.398419,17.2207643 C20.3679368,17.0510828 20.3130435,16.9038217 20.2338656,16.7789809 C20.1546877,16.6542675 20.0450277,16.5550318 19.9050119,16.4815287 C19.7648696,16.4078981 19.5852648,16.3710828 19.3659447,16.3710828 C19.1710356,16.3710828 18.9983874,16.3947771 18.8481265,16.4421656 C18.6978656,16.4895541 18.5395099,16.5729936 18.3730593,16.6924841 L18.3730593,16.5438217 C18.3730593,16.5109554 18.360917,16.4820382 18.3365059,16.4573248 C18.3122213,16.4326115 18.2837628,16.4201274 18.2512569,16.4201274 L17.5690119,16.4201274 C17.5365059,16.4201274 17.5081739,16.4323567 17.4837628,16.4569427 C17.4594783,16.4815287 17.4472095,16.5101911 17.4472095,16.5428025 L17.4472095,19.8064968 C17.4472095,19.8392357 17.4603636,19.8689172 17.4867984,19.895414 C17.5132332,19.9220382 17.5425771,19.9352866 17.5752095,19.9352866 L18.3122213,19.9352866 C18.3446008,19.9352866 18.3730593,19.9220382 18.3974704,19.8955414 C18.4217549,19.8690446 18.4340237,19.8394904 18.4340237,19.8067516 L18.4340237,17.3950318 C18.5395099,17.3379618 18.6390514,17.2910828 18.7323953,17.2543949 C18.8258656,17.2175796 18.9171858,17.1992357 19.0066087,17.1992357 C19.0999526,17.1992357 19.1760949,17.2084076 19.2349091,17.226879 C19.2937233,17.2452229 19.3395099,17.2768153 19.3720158,17.3217834 C19.4045217,17.3666242 19.4267826,17.4257325 19.4390514,17.4991083 C19.4511937,17.5726115 19.4572648,17.6624204 19.4572648,17.768535 L19.4572648,19.8067516 C19.4572648,19.8394904 19.4695336,19.8690446 19.4938182,19.8955414 C19.5182292,19.9220382 19.5465613,19.9352866 19.5790672,19.9352866 L20.3160791,19.9352866 C20.348585,19.9352866 20.3780553,19.9220382 20.4044901,19.895414 C20.4307984,19.8689172 20.4440791,19.8392357 20.4440791,19.8064968 L20.4440791,19.8064968 Z M23.0998261,19.8202548 L23.0998261,19.3454777 C23.0998261,19.2765605 23.0572016,19.2420382 22.9719526,19.2420382 L22.6734545,19.2420382 C22.5799842,19.2420382 22.5231937,19.2247134 22.5029565,19.1899363 C22.4825929,19.1552866 22.4724743,19.0764331 22.4724743,18.953758 L22.4724743,17.168535 L22.9719526,17.168535 C23.004332,17.168535 23.0327905,17.1561783 23.0572016,17.131465 C23.0816126,17.1067516 23.0937549,17.0778344 23.0937549,17.0448408 L23.0937549,16.5438217 C23.0937549,16.5109554 23.0816126,16.4819108 23.0572016,16.4571975 C23.0327905,16.4324841 23.004332,16.4201274 22.9719526,16.4201274 L22.4724743,16.4201274 L22.4724743,15.7698089 C22.4724743,15.7371975 22.4623557,15.7115924 22.4422451,15.693121 C22.4220079,15.6747771 22.3956996,15.6656051 22.3634466,15.6656051 L22.3453597,15.6656051 L21.60683,15.7943949 C21.5744506,15.8026752 21.5461186,15.8169427 21.5219605,15.8373248 C21.4978024,15.8578344 21.4856601,15.8843312 21.4856601,15.9170701 L21.4856601,16.4201274 L20.9984506,16.4201274 C20.9658182,16.4201274 20.9364743,16.4335032 20.9100395,16.46 C20.8836047,16.4866242 20.8704506,16.5163057 20.8704506,16.5489172 L20.8704506,16.9538854 C20.8704506,16.9866242 20.8836047,17.0142675 20.9100395,17.0366879 C20.9364743,17.0592357 20.9658182,17.0745223 20.9984506,17.0826752 L21.4856601,17.1624204 L21.4856601,18.9415287 C21.4856601,19.1583439 21.5079209,19.3351592 21.5521897,19.4721019 C21.596585,19.609172 21.6612174,19.7165605 21.7459605,19.7942675 C21.8307036,19.8719745 21.9366957,19.9240764 22.0638103,19.9507006 C22.1909249,19.9771975 22.3372648,19.9905732 22.5029565,19.9905732 C22.5921265,19.9905732 22.6714308,19.9863694 22.7404901,19.9783439 C22.8094229,19.9701911 22.8906245,19.9580892 22.9840949,19.9417834 C23.061249,19.9298089 23.0998261,19.889172 23.0998261,19.8202548 L23.0998261,19.8202548 Z M26.3524427,17.6225478 C26.3524427,17.397707 26.3189249,17.2063694 26.2518893,17.0489172 C26.1848538,16.8915924 26.090498,16.7626752 25.9686957,16.6624204 C25.8468933,16.562293 25.6976443,16.4886624 25.5209486,16.4416561 C25.3443794,16.3946497 25.1464348,16.3710828 24.9271146,16.3710828 C24.7239842,16.3710828 24.5260395,16.3854777 24.3332806,16.4140127 C24.1402688,16.4426752 23.9869723,16.4713376 23.8733913,16.4998726 C23.7961107,16.5203822 23.7576601,16.5653503 23.7576601,16.6347771 L23.7576601,17.1317197 C23.7576601,17.1727389 23.7676522,17.2014013 23.7880158,17.2175796 C23.8083794,17.2340127 23.8346877,17.2421656 23.8671937,17.2421656 L23.8976759,17.2421656 C23.946498,17.2380892 24.007336,17.2329936 24.0804427,17.226879 C24.1535494,17.2207643 24.2357628,17.2156688 24.327083,17.211465 C24.4185296,17.2075159 24.5138972,17.2044586 24.6134387,17.202293 C24.7128538,17.2002548 24.8113834,17.1992357 24.9087747,17.1992357 C25.0509407,17.1992357 25.1626245,17.2258599 25.2438261,17.2789809 C25.3250277,17.3322293 25.3656285,17.4467516 25.3656285,17.6225478 L25.3656285,17.8434395 L25.0367747,17.8434395 C24.5128854,17.8434395 24.1321739,17.926242 23.8946403,18.0918471 C23.6571067,18.2574522 23.5383399,18.5202548 23.5383399,18.8801274 L23.5383399,18.935414 C23.5383399,19.1357962 23.5676838,19.3034395 23.6266245,19.4383439 C23.6854387,19.5733758 23.7637312,19.6817834 23.8611225,19.7635669 C23.9586403,19.8453503 24.0691858,19.9036943 24.1931383,19.9383439 C24.3169644,19.973121 24.4458498,19.9905732 24.5799209,19.9905732 C24.7626877,19.9905732 24.9199051,19.9659873 25.0519526,19.9169427 C25.1838735,19.8678981 25.3087115,19.8003822 25.4265929,19.7145223 L25.4265929,19.8126115 C25.4265929,19.8453503 25.4387352,19.8740127 25.4631462,19.8984713 C25.4874308,19.9230573 25.5158893,19.9352866 25.5483953,19.9352866 L26.2306403,19.9352866 C26.2630198,19.9352866 26.2914783,19.9230573 26.3158893,19.8984713 C26.3401739,19.8740127 26.3524427,19.8453503 26.3524427,19.8126115 L26.3524427,17.6225478 Z M25.3839684,19.1071338 C25.3108617,19.143949 25.2325692,19.1756688 25.1494704,19.2021656 C25.0661186,19.2289172 24.977834,19.2420382 24.8844901,19.2420382 C24.7544664,19.2420382 24.658087,19.2236943 24.5950988,19.186879 C24.5321107,19.1500637 24.5007431,19.066242 24.5007431,18.935414 L24.5007431,18.8801274 C24.5007431,18.8064968 24.5088379,18.7411465 24.5251542,18.6838217 C24.5412174,18.6266242 24.5696759,18.5794904 24.6104032,18.5426752 C24.6508775,18.5059873 24.7057708,18.4783439 24.77483,18.4598726 C24.8438893,18.4415287 24.9311621,18.4323567 25.0367747,18.4323567 L25.3839684,18.4323567 L25.3839684,19.1071338 Z M29.3491858,19.7574522 L29.3491858,19.211465 C29.3491858,19.1787261 29.3379289,19.153121 29.315668,19.1347771 C29.2932806,19.1163057 29.2659605,19.1071338 29.2334545,19.1071338 L29.2213123,19.1071338 C29.1076047,19.1193631 28.9989565,19.1296815 28.8953676,19.1378344 C28.7919051,19.1459873 28.6527747,19.1500637 28.4782292,19.1500637 C28.4090435,19.1500637 28.3441581,19.1388535 28.2833202,19.1163057 C28.2223557,19.0938854 28.1694862,19.0550318 28.1248379,18.9997452 C28.0801897,18.944586 28.0446482,18.8709554 28.0183399,18.7789809 C27.9917787,18.686879 27.978751,18.5733758 27.978751,18.4384713 L27.978751,17.9231847 C27.978751,17.7881529 27.9917787,17.6746497 28.0183399,17.5826752 C28.0446482,17.4905732 28.0801897,17.4170701 28.1248379,17.3617834 C28.1694862,17.3066242 28.2223557,17.2677707 28.2833202,17.2452229 C28.3441581,17.2228025 28.4090435,17.211465 28.4782292,17.211465 C28.6527747,17.211465 28.7919051,17.2156688 28.8953676,17.2238217 C28.9989565,17.2319745 29.1076047,17.2421656 29.2213123,17.2543949 L29.2334545,17.2543949 C29.2659605,17.2543949 29.2932806,17.2452229 29.315668,17.226879 C29.3379289,17.2084076 29.3491858,17.1829299 29.3491858,17.1501911 L29.3491858,16.6042038 C29.3491858,16.5592357 29.3390672,16.5275159 29.3187036,16.5090446 C29.2983399,16.4907006 29.2659605,16.4752866 29.2213123,16.4630573 C29.1360632,16.4426752 29.0252648,16.422293 28.8892964,16.4016561 C28.7532016,16.3812739 28.5939605,16.3710828 28.4111937,16.3710828 C27.9806482,16.3710828 27.6366166,16.503949 27.3787194,16.7698089 C27.1208221,17.0356688 26.9919368,17.4201274 26.9919368,17.9231847 L26.9919368,18.4384713 C26.9919368,18.9415287 27.1208221,19.3259873 27.3787194,19.5917197 C27.6366166,19.857707 27.9806482,19.9905732 28.4111937,19.9905732 C28.5939605,19.9905732 28.7532016,19.9802548 28.8892964,19.9598726 C29.0252648,19.9393631 29.1360632,19.9189809 29.2213123,19.8984713 C29.2659605,19.886242 29.2983399,19.8709554 29.3187036,19.8524841 C29.3390672,19.8341401 29.3491858,19.8024204 29.3491858,19.7574522 L29.3491858,19.7574522 Z M31.9744506,19.8202548 L31.9744506,19.3454777 C31.9744506,19.2765605 31.9318261,19.2420382 31.8465771,19.2420382 L31.5480791,19.2420382 C31.4546087,19.2420382 31.3978182,19.2247134 31.377581,19.1899363 C31.3572174,19.1552866 31.3470988,19.0764331 31.3470988,18.953758 L31.3470988,17.168535 L31.8465771,17.168535 C31.8789565,17.168535 31.907415,17.1561783 31.9318261,17.131465 C31.9561107,17.1067516 31.9683794,17.0778344 31.9683794,17.0448408 L31.9683794,16.5438217 C31.9683794,16.5109554 31.9561107,16.4819108 31.9318261,16.4571975 C31.907415,16.4324841 31.8789565,16.4201274 31.8465771,16.4201274 L31.3470988,16.4201274 L31.3470988,15.7698089 C31.3470988,15.7371975 31.3369802,15.7115924 31.3167431,15.693121 C31.2966324,15.6747771 31.2703241,15.6656051 31.2380711,15.6656051 L31.2198577,15.6656051 L30.4813281,15.7943949 C30.4489486,15.8026752 30.4207431,15.8169427 30.396585,15.8373248 C30.3724269,15.8578344 30.3602846,15.8843312 30.3602846,15.9170701 L30.3602846,16.4201274 L29.8730751,16.4201274 C29.8404427,16.4201274 29.8110988,16.4335032 29.784664,16.46 C29.7582292,16.4866242 29.7450751,16.5163057 29.7450751,16.5489172 L29.7450751,16.9538854 C29.7450751,16.9866242 29.7582292,17.0142675 29.784664,17.0366879 C29.8110988,17.0592357 29.8404427,17.0745223 29.8730751,17.0826752 L30.3602846,17.1624204 L30.3602846,18.9415287 C30.3602846,19.1583439 30.3825455,19.3351592 30.4268142,19.4721019 C30.4712095,19.609172 30.5358419,19.7165605 30.620585,19.7942675 C30.7053281,19.8719745 30.8111937,19.9240764 30.9384348,19.9507006 C31.0655494,19.9771975 31.2118893,19.9905732 31.377581,19.9905732 C31.466751,19.9905732 31.5459289,19.9863694 31.6151146,19.9783439 C31.6840474,19.9701911 31.765249,19.9580892 31.8587194,19.9417834 C31.935747,19.9298089 31.9744506,19.889172 31.9744506,19.8202548 L31.9744506,19.8202548 Z" id="Fill-4" fill="#004C81"/>
            </g>
        </g>
    </g>
</svg>