<?xml version="1.0" encoding="utf-8"?>
<svg xmlns="http://www.w3.org/2000/svg" xmlns:xlink="http://www.w3.org/1999/xlink" width="32px" height="32px" viewBox="0 0 32 32" version="1.1">
    
    <title>Custom Preset</title>
    <desc>Created with Sketch.</desc>
    <g id="Custom-Preset" stroke="none" stroke-width="1" fill="none" fill-rule="evenodd">
        <g id="ideal" transform="translate(-5.000000, -3.000000)">
            <polygon id="Path" points="0 0 43 0 43 38.804878 0 38.804878"/>
            <path d="M3.14634146,3.14634146 L3.14634146,34.6097561 L21.4729735,34.6097561 C33.5623294,34.6097561 38.804878,27.8332669 38.804878,18.8472532 C38.804878,9.89615734 33.5623294,3.14634146 21.4729735,3.14634146 L3.14634146,3.14634146 Z" id="Path" fill="#FFFFFF" fill-rule="nonzero"/>
            <path d="M5.24390244,5.24390244 L21.4714639,5.24390244 C32.4855828,5.24390244 36.7073171,11.2592712 36.7073171,18.8475054 C36.7073171,27.9465562 30.8118946,32.5121951 21.4714639,32.5121951 L5.24390244,32.5121951 L5.24390244,5.24390244 Z M6.81707317,6.81724892 L6.81707317,30.9398106 L21.4714639,30.9398106 C30.3189261,30.9398106 35.1327035,26.8166905 35.1327035,18.8475054 C35.1327035,10.6575419 29.9144515,6.81676792 21.4714639,6.81676792 L6.81707317,6.81676792 L6.81707317,6.81724892 Z" id="Shape" fill="#000000" fill-rule="nonzero"/>
            <polygon id="Path" fill="#000000" fill-rule="nonzero" points="9.43902439 20.9756098 13.6341463 20.9756098 13.6341463 29.3658537 9.43902439 29.3658537"/>
            <circle id="Oval" fill="#000000" fill-rule="nonzero" cx="11.5365854" cy="16.7804878" r="3.14634146"/>
            <path d="M23.4245011,18.3143299 L23.4245011,19.6488302 L19.9851369,19.6488302 L19.9851369,14.2937382 L23.3146394,14.2937382 L23.3146394,15.6277638 L21.3757288,15.6277638 L21.3757288,16.2477771 L23.2092316,16.2477771 L23.2092316,17.5822774 L21.3757288,17.5822774 L21.3757288,18.3148046 L23.4245011,18.3143299 Z M24.0262662,19.6497797 L25.7093277,14.2918392 L27.6878282,14.2918392 L29.3703948,19.6497797 L27.9228926,19.6497797 L27.6071639,18.6134175 L25.7880124,18.6134175 L25.4717889,19.6497797 L24.0262662,19.6497797 L24.0262662,19.6497797 Z M26.1957874,17.2803414 L27.2023582,17.2803414 L26.7406421,15.7668632 L26.6565138,15.7668632 L26.1957874,17.2803414 Z M30.0696498,14.2923139 L31.4612314,14.2923139 L31.4612314,18.3148046 L33.5208909,18.3148046 C32.9557465,11.016118 26.9717476,9.43902439 21.5311188,9.43902439 L15.7326971,9.43902439 L15.7326971,14.2951624 L16.5908061,14.2951624 C18.1555931,14.2951624 19.1270279,15.3130097 19.1270279,16.9508703 C19.1270279,18.6409525 18.1788521,19.6497797 16.5908061,19.6497797 L15.7326971,19.6497797 L15.7326971,29.3658537 L21.5316136,29.3658537 C30.3730066,29.3658537 33.4521036,25.4264429 33.5609756,19.6488302 L30.0696498,19.6488302 L30.0696498,14.2923139 L30.0696498,14.2923139 Z M15.7317073,15.629188 L15.7317073,18.3148046 L16.5908061,18.3148046 C17.1861377,18.3148046 17.736436,18.1495943 17.736436,16.9503955 C17.736436,15.7792065 17.1242787,15.629188 16.5908061,15.629188 L15.7317073,15.629188 L15.7317073,15.629188 Z" id="Shape" fill="#D50072" fill-rule="nonzero"/>
        </g>
    </g>
</svg>