<?xml version="1.0" encoding="utf-8"?>
<svg xmlns="http://www.w3.org/2000/svg" xmlns:xlink="http://www.w3.org/1999/xlink" version="1.1" id="Layer_1" x="0px" y="0px" viewBox="0 0 32 32" style="enable-background:new 0 0 32 32;">
<g id="JWfu7v.tif">
	<g>
		<path d="M30.2,13.7c-2.8,0-5.5-0.6-8-2.2c0,0.5,0,0.9,0,1.3c0,2.9,0,5.8,0.1,8.7c0.1,5.9-4.7,10.7-10.6,10.5&#xA;			c-5.7-0.1-10.1-5.2-9.8-11c0.4-5.5,5.4-9.9,10.9-9.4c0.3,0,0.6,0.1,0.9,0.2c0,1.8,0,3.5,0,5.3c-1,0-1.9-0.2-2.8,0&#xA;			C8.6,17.5,7,19.7,7.2,22c0.1,2.3,1.9,4.3,4.3,4.6c2.2,0.3,4.4-1,5.2-3.1c0.2-0.5,0.3-1.1,0.3-1.7c0-6.9,0-13.8,0-20.6&#xA;			c0-0.4,0-0.7,0-1.1c1.8,0,3.5,0,5.3,0c0.1,2.7,0.8,5.1,3,6.7c1.5,1.1,3.2,1.4,5.1,1.3C30.2,9.9,30.2,11.8,30.2,13.7z"/>
	</g>
</g>
</svg>