<svg xmlns="http://www.w3.org/2000/svg" width="50" height="50" viewBox="0 0 50 50" fill="none"><path fill="currentColor" d="M35.564 16.27a2.47 2.47 0 012.47 2.469v20.458a2.47 2.47 0 01-2.47 2.47H15.29a2.47 2.47 0 01-2.47-2.47v-.02l.165-20.458a2.47 2.47 0 012.469-2.45h20.111zm0 1.764H15.453a.705.705 0 00-.706.7l-.163 20.458v.005c0 .39.315.706.705.706h20.275c.39 0 .706-.316.706-.706V18.74a.706.706 0 00-.706-.706zm-9.873-9.7c3.22 0 5.461 1.653 6.57 4.823a.882.882 0 01-1.664.582c-.866-2.474-2.45-3.642-4.906-3.642-2.456 0-4.04 1.168-4.906 3.642a.882.882 0 11-1.665-.582c1.11-3.17 3.352-4.824 6.57-4.824z"></path></svg>